<svg xmlns="http://www.w3.org/2000/svg" data-name="Layer 1" viewBox="0 0 100 100" x="0px" y="0px"><defs><style>.cls-1{fill-rule:evenodd;}</style></defs><title>a</title><path class="cls-1" d="M36.194,49.811a1.2,1.2,0,1,1,1.694-1.694l5.556,5.556a1.2,1.2,0,0,1,0,1.694l-5.556,5.556a1.2,1.2,0,1,1-1.694-1.694L40.9,54.52l-4.709-4.709ZM84.046,13.47a35.123,35.123,0,0,0-14.121-2.644,35.117,35.117,0,0,0-14.12,2.644c-3.307,1.5-5.352,3.48-5.352,5.567S52.5,23.1,55.805,24.605a35.136,35.136,0,0,0,14.12,2.643,35.141,35.141,0,0,0,14.121-2.643c3.307-1.5,5.352-3.48,5.352-5.568s-2.045-4.062-5.352-5.567ZM56.2,41.992a1.192,1.192,0,1,1-.9,2.208q-.477-.2-.87-.373-.452-.207-.821-.394A1.195,1.195,0,0,1,54.682,41.3q.389.2.737.356.41.186.776.336Zm0-11.414a1.2,1.2,0,0,1-.9,2.218c-.251-.1-.542-.229-.87-.378-.3-.137-.575-.269-.821-.393a1.195,1.195,0,0,1,1.076-2.134c.259.131.5.25.737.356q.309.141.776.331Zm0,22.818a1.2,1.2,0,0,1-.9,2.218c-.251-.1-.542-.229-.87-.379q-.452-.206-.821-.393a1.195,1.195,0,0,1,1.076-2.133c.259.131.5.25.737.356.206.093.465.2.776.331Zm-28.04,10a1.2,1.2,0,0,1-2.311-.618l4.589-17.129a1.2,1.2,0,0,1,2.312.618l-4.59,17.129Zm22.53-27.669h-.233v6.406c0,2.088,2.045,4.063,5.352,5.568a35.135,35.135,0,0,0,14.12,2.644A35.14,35.14,0,0,0,84.046,47.7c3.307-1.5,5.352-3.48,5.352-5.568V35.51a15.877,15.877,0,0,1-4.36,2.816,37.546,37.546,0,0,1-15.113,2.868,37.541,37.541,0,0,1-15.112-2.868,16.307,16.307,0,0,1-4.128-2.6Zm1.188-2.152a4.337,4.337,0,0,1-1.42-2.986V23.96a15.875,15.875,0,0,0,4.361,2.816,37.541,37.541,0,0,0,15.112,2.868,37.546,37.546,0,0,0,15.113-2.868A15.854,15.854,0,0,0,89.4,23.96v6.627c0,2.088-2.045,4.062-5.352,5.568A35.141,35.141,0,0,1,69.925,38.8a35.136,35.136,0,0,1-14.12-2.643,13.624,13.624,0,0,1-3.713-2.366,1.179,1.179,0,0,0-.219-.216ZM35.847,27.878a1.2,1.2,0,1,1,0-2.395h12.21V20.424H9.51A2.124,2.124,0,0,0,7.4,22.539v10.79H48.057V27.878Zm-21.835,0a1.2,1.2,0,1,1,0-2.395h0a1.2,1.2,0,1,1,0,2.395Zm7.02,0a1.2,1.2,0,1,1,0-2.395h0a1.2,1.2,0,0,1,0,2.395Zm7.02,0a1.2,1.2,0,1,1,0-2.395h0a1.2,1.2,0,1,1,0,2.395ZM87.23,81.816l2.458-2.458-1.44-1.44,0,0a1.2,1.2,0,0,1-.175-1.467,11.126,11.126,0,0,0,.792-1.553,11.249,11.249,0,0,0,.52-1.571,1.2,1.2,0,0,1,1.182-1.009h2.036V68.84H90.569v0a1.193,1.193,0,0,1-1.16-.913,11.221,11.221,0,0,0-.542-1.663,11.1,11.1,0,0,0-.75-1.484,1.2,1.2,0,0,1,.131-1.538l1.44-1.44L87.23,59.34l-1.44,1.44,0,0a1.2,1.2,0,0,1-1.467.175,11.126,11.126,0,0,0-1.553-.792,11.245,11.245,0,0,0-1.571-.519,1.2,1.2,0,0,1-1.009-1.183V56.424H76.712v2.035h0a1.192,1.192,0,0,1-.913,1.16,11.169,11.169,0,0,0-3.147,1.292,1.2,1.2,0,0,1-1.538-.131l-1.44-1.44L67.212,61.8l1.44,1.44,0,0a1.194,1.194,0,0,1,.175,1.467,11.277,11.277,0,0,0-.792,1.558h0a11.186,11.186,0,0,0-.517,1.567,1.2,1.2,0,0,1-1.183,1.009H64.3v3.476h2.035v0a1.194,1.194,0,0,1,1.16.913,11.352,11.352,0,0,0,.517,1.6c.009.018.017.037.025.056a11.2,11.2,0,0,0,.75,1.488,1.2,1.2,0,0,1-.131,1.538l-1.44,1.44,2.458,2.458,1.44-1.44,0,0a1.2,1.2,0,0,1,1.467-.175A11.168,11.168,0,0,0,74.137,81v0a11.334,11.334,0,0,0,1.568.518A1.2,1.2,0,0,1,76.712,82.7v2.036h3.476V82.7h0a1.2,1.2,0,0,1,.913-1.16A11.183,11.183,0,0,0,82.768,81a11.038,11.038,0,0,0,1.484-.75,1.2,1.2,0,0,1,1.538.131l1.44,1.44ZM64.727,61.58a2.135,2.135,0,0,1,.617-1.3l0,0,0,0,2.807-2.807c.031-.031.064-.06.1-.087a2.147,2.147,0,0,1,2.942.087l.974.974q.515-.267,1.06-.493t1.093-.4V56.177a2.144,2.144,0,0,1,.63-1.519.978.978,0,0,1,.1-.086,2.132,2.132,0,0,1,1.422-.544h3.969a2.141,2.141,0,0,1,1.514.63l0,0,0,0a2.148,2.148,0,0,1,.63,1.519v1.377q.556.177,1.091.4t1.062.494l.974-.974a1.137,1.137,0,0,1,.1-.087,2.134,2.134,0,0,1,1.422-.541,2.18,2.18,0,0,1,.495.057,6.342,6.342,0,0,0,1.155-1.419,3.581,3.581,0,0,0,.518-1.806V47.054a15.854,15.854,0,0,1-4.36,2.816,37.546,37.546,0,0,1-15.113,2.868A37.541,37.541,0,0,1,54.813,49.87a15.875,15.875,0,0,1-4.361-2.816v6.622c0,1.851,1.622,3.622,4.309,5.054a29.079,29.079,0,0,0,9.966,2.85ZM82.5,66.532a5.724,5.724,0,1,1-4.046-1.675A5.707,5.707,0,0,1,82.5,66.532ZM78.45,62.461a8.119,8.119,0,1,1-5.739,2.378,8.094,8.094,0,0,1,5.739-2.378ZM15.976,80.429a1.2,1.2,0,1,1,0-2.395h49.2a2.158,2.158,0,0,1,.169-.191l0,0,0,0,.973-.973c-.179-.344-.343-.7-.492-1.056-.009-.022-.017-.043-.025-.064q-.207-.507-.374-1.033H64.049a2.138,2.138,0,0,1-1.514-.631l0,0,0,0a2.142,2.142,0,0,1-.631-1.518v-.207H15.976a1.2,1.2,0,0,1,0-2.4H61.9V68.593a2.136,2.136,0,0,1,.631-1.513l0,0a2.137,2.137,0,0,1,1.514-.63h1.377q.177-.558.4-1.092v0h0q.224-.54.492-1.057l-.162-.162a32.981,32.981,0,0,1-12.517-3.294c-3.48-1.855-5.581-4.35-5.581-7.159V35.725H7.4V87.059A2.124,2.124,0,0,0,9.51,89.174H83.627a2.124,2.124,0,0,0,2.114-2.115V83.714l-.03-.03-.974-.974q-.516.267-1.061.493c-.356.148-.721.281-1.092.4v1.377a2.151,2.151,0,0,1-2.149,2.149H76.466a2.151,2.151,0,0,1-2.149-2.149V83.6q-.558-.177-1.092-.4l0,0v0q-.538-.223-1.057-.493l-.973.973a2.152,2.152,0,0,1-3.039,0l-2.807-2.807A2.152,2.152,0,0,1,65,80.429Zm6.4-21.2a1.2,1.2,0,0,1-1.694,1.694l-5.556-5.556a1.2,1.2,0,0,1,0-1.694l5.556-5.556a1.2,1.2,0,0,1,1.694,1.694l-4.71,4.709Z"/></svg>